<?xml version="1.0" standalone="no"?>
<!DOCTYPE svg PUBLIC "-//W3C//DTD SVG 1.0//EN" "http://www.w3.org/TR/2001/REC-SVG-20010904/DTD/svg10.dtd">
<svg width="1000" height="1000" viewBox="0 0 1000 1000" xmlns="http://www.w3.org/2000/svg" xmlns:xlink="http://www.w3.org/1999/xlink">
<title>BDSM emblem</title>
<g transform="translate(20,950) scale(1,-1)" stroke="none">
<circle cx="480" cy="450"  r="480"/>
<circle cx="480" cy="450" fill="#ffffff" r="432.5"/>
<path stroke="#000000" stroke-width="12.5" stroke-miterlimit="12" d="M99.2305,450
C99.2305,359.208,139.343,172.874,299.804,172.874
C398.972,172.874,473.232,259.467,473.232,346.322
C473.232,369.911,468.406,393.757,458.352,416.352
C314.279,429.096,237.699,561.161,237.699,657.699
C237.699,694.85,246.056,730.054,261.004,761.518
C163.142,692.605,99.2305,578.767,99.2305,450Z
M319.587,104.562
C377.722,77.4922,431.884,69.2305,480,69.2305
C691.986,69.2305,833.312,235.411,833.312,346.201
C833.312,433.483,765.104,519.278,660.697,519.278
C602.287,519.278,551.648,491.685,519.955,448.087
C535.175,415.371,542.471,380.682,542.471,346.371
C542.471,228.807,453.173,115.212,319.587,104.562Z
M306.938,657.692
C306.938,568.193,374.87,494.561,461.99,485.542
C508.158,551.824,583.156,588.509,660.095,588.509
C739.771,588.509,814.031,549.485,859.303,483.892
C842.13,678.319,678.876,830.77,480.014,830.77
C386.641,830.77,306.938,757.32,306.938,657.692Z"/>
<g fill="#ffffff">
<circle cx="465.012" cy="671.553" r="38"/>
<circle cx="678.8935" cy="352.607" r="38"/>
<circle cx="295.8735" cy="326.5335" r="38"/>
</g>
</g>
</svg>
